<svg width="532" height="570" viewBox="0 0 532 570" fill="none" xmlns="http://www.w3.org/2000/svg">
<path d="M14.1866 283.048C-11.5067 295.445 3.48107 337.534 14.1866 357.029C52.4853 444.007 141.296 606.866 190.15 562.477C251.217 506.991 412.705 556.478 456.131 534.984C499.556 513.489 549.767 399.019 525.792 301.544C501.818 204.069 299.166 162.579 293.738 190.572C288.309 218.565 133.154 216.565 105.108 243.059C77.0627 269.552 46.3034 267.552 14.1866 283.048Z" fill="url(#paint0_linear)"/>
<g clip-path="url(#clip0)">
<path d="M34.9004 378.4L259.6 506" stroke="url(#paint1_linear)" stroke-width="15" stroke-miterlimit="10" stroke-linecap="round" stroke-linejoin="round"/>
<path d="M132.801 287.2L512.801 503" stroke="url(#paint2_linear)" stroke-width="15" stroke-miterlimit="10" stroke-linecap="round" stroke-linejoin="round"/>
<path d="M255.801 284.2L513.701 430.7" stroke="url(#paint3_linear)" stroke-width="11" stroke-miterlimit="10" stroke-linecap="round" stroke-linejoin="round"/>
<path d="M277 228.5L517.1 364.8" stroke="url(#paint4_linear)" stroke-width="25" stroke-miterlimit="10" stroke-linecap="round" stroke-linejoin="round"/>
<path d="M73.4004 322.2L368.4 489.6" stroke="url(#paint5_linear)" stroke-width="35" stroke-miterlimit="10" stroke-linecap="round" stroke-linejoin="round"/>
<path d="M86.9004 340.5L170.3 292.4L253.6 340.5L170.3 388.7L86.9004 340.5Z" stroke="#3262AC" stroke-miterlimit="10" stroke-linecap="round" stroke-linejoin="round"/>
<path d="M242.4 340.5L170.3 298.9L98.2002 340.5L170.3 382.2L242.4 340.5Z" fill="url(#paint6_linear)"/>
<path d="M166.8 416.9L116 446.2C114 447.4 114 450.2 116 451.4L191.1 494.8C193.8 496.4 197.2 496.4 200 494.8L251.2 465.7C253.2 464.6 253.2 461.7 251.2 460.5L175.7 416.9C173 415.3 169.6 415.3 166.8 416.9Z" fill="url(#paint7_linear)"/>
<path d="M105.201 446L166.501 410.6C169.501 408.9 173.201 408.9 176.101 410.6L262.201 460.3C264.401 461.6 264.401 464.7 262.201 465.9L200.301 501C197.301 502.7 193.701 502.7 190.701 501L105.101 451.6C103.001 450.3 103.001 447.2 105.201 446Z" stroke="#3262AC" stroke-miterlimit="10" stroke-linecap="round" stroke-linejoin="round"/>
<path d="M330 336.3L220 399.8L296.8 443.4C298.6 444.4 300.7 444.4 302.5 443.4L405.3 384.1C407.2 383 407.2 380.2 405.3 379.1L330 336.3Z" fill="url(#paint8_linear)"/>
<path d="M208.7 399.9L330 329.9L416.5 379C418.5 380.1 418.5 383.1 416.5 384.2L303.7 449.3C301.3 450.7 298.3 450.7 295.8 449.3L208.7 399.9Z" stroke="#3262AC" stroke-miterlimit="10" stroke-linecap="round" stroke-linejoin="round"/>
<path d="M353.7 322.4L415.8 286.6L477.9 322.4L415.8 358.2L353.7 322.4Z" stroke="#3262AC" stroke-miterlimit="10" stroke-linecap="round" stroke-linejoin="round"/>
<path d="M466.6 322.4L415.8 293.1L365 322.4L415.8 351.8L466.6 322.4Z" fill="url(#paint9_linear)"/>
<path d="M439.7 425.6L415.1 411.6C413.5 410.7 411.6 410.7 410 411.6L355.3 443.2C354.1 443.9 354.1 445.7 355.3 446.4L379.9 460.4C381.5 461.3 383.4 461.3 385 460.4L439.7 428.8C440.9 428 440.9 426.3 439.7 425.6Z" fill="url(#paint10_linear)"/>
<path d="M343.6 443.4L408.7 405.8C411.1 404.4 413.9 404.4 416.3 405.8L451.4 425.7C452.5 426.3 452.5 427.9 451.4 428.5L386.3 466.1C384 467.5 381.1 467.5 378.7 466.1L343.6 446.2C342.5 445.6 342.5 444 343.6 443.4Z" stroke="#3262AC" stroke-miterlimit="10" stroke-linecap="round" stroke-linejoin="round"/>
<path d="M241.401 418.4L215.601 433.3" stroke="#3262AC" stroke-miterlimit="10" stroke-linecap="round" stroke-linejoin="round"/>
<path d="M380.6 338.1L362.7 348.4" stroke="#3262AC" stroke-miterlimit="10" stroke-linecap="round" stroke-linejoin="round"/>
<path d="M367.301 412.7L392.401 427.2" stroke="#3262AC" stroke-miterlimit="10" stroke-linecap="round" stroke-linejoin="round"/>
<path d="M206.7 367.9L232.2 382.6" stroke="#3262AC" stroke-miterlimit="10" stroke-linecap="round" stroke-linejoin="round"/>
<path d="M170.3 362.3L242.4 320.6V139.8L170.3 181.4V362.3Z" fill="#0F4D95"/>
<path d="M242.4 139.8L170.3 98.2L98.2002 139.8L170.3 181.4L242.4 139.8Z" fill="#3252A0"/>
<path d="M215.8 139.8L124.7 135.7V139.8L170.3 166.1L215.8 139.8Z" fill="#2A2F6D"/>
<path d="M215.8 139.8V135.7L170.3 162V166.1L215.8 139.8Z" fill="#0F4D95"/>
<path d="M215.8 135.7L170.3 109.4L124.7 135.7L170.3 162L215.8 135.7Z" fill="#416CB3"/>
<path d="M146.001 130.2L144.801 130.8L178.701 150.4L179.801 149.7L146.001 130.2Z" fill="#375EA9"/>
<path d="M170.7 155L171.9 154.3L138.1 134.8L136.9 135.4L170.7 155Z" fill="#375EA9"/>
<path d="M142 132.5L140.9 133.1L174.7 152.7L175.9 152L142 132.5Z" fill="#375EA9"/>
<path d="M150.001 127.9L148.801 128.6L182.601 148.1L183.801 147.4L150.001 127.9Z" fill="#375EA9"/>
<path d="M169.801 116.4L168.601 117.1L202.501 136.6L203.601 136L169.801 116.4Z" fill="#375EA9"/>
<path d="M161.9 121L160.7 121.7L194.5 141.2L195.7 140.6L161.9 121Z" fill="#375EA9"/>
<path d="M153.901 125.6L152.801 126.3L186.601 145.8L187.801 145.1L153.901 125.6Z" fill="#375EA9"/>
<path d="M165.8 118.7L164.7 119.4L198.5 138.9L199.7 138.3L165.8 118.7Z" fill="#375EA9"/>
<path d="M157.9 123.3L156.7 124L190.6 143.5L191.7 142.9L157.9 123.3Z" fill="#375EA9"/>
<path d="M99.7002 319.8V142.4L168.8 182.3V359.7L99.7002 319.8Z" fill="#2D2E7F"/>
<path d="M101.2 145L167.3 183.2V357.1L101.2 318.9V145ZM98.2002 139.8V320.6L170.3 362.2V181.4L98.2002 139.8Z" fill="#2A2F6D"/>
<path d="M161.5 208.5V215.8L155.9 212.6V205.3L161.5 208.5ZM144.3 198.6L107 177.1V184.4L144.4 206V198.6H144.3ZM147.3 200.3V207.6L152.9 210.9V203.6L147.3 200.3Z" fill="#2A2F6D"/>
<path d="M161.5 215V215.9L155.9 212.7V205.4L156.7 205.9V212.3L161.5 215ZM107.8 183.9V177.5L107 177V184.3L144.4 205.9V205L107.8 183.9ZM148.1 207.2V200.8L147.3 200.3V207.6L152.9 210.9V210L148.1 207.2Z" fill="#262856"/>
<path d="M158.1 210C158.5 210.9 159.4 211.6 160.1 211.6C160.8 211.6 161 210.9 160.6 210C160.2 209.1 159.3 208.4 158.6 208.4C157.9 208.3 157.7 209.1 158.1 210Z" fill="#2B3180"/>
<path d="M160.6 211.4C159.9 211.4 159 210.7 158.6 209.8C158.3 209.2 158.4 208.7 158.6 208.4C158 208.5 157.8 209.2 158.2 210C158.6 210.9 159.5 211.6 160.2 211.6C160.3 211.6 160.5 211.5 160.6 211.4Z" fill="#262856"/>
<path d="M161.5 223.7V231L155.9 227.8V220.5L161.5 223.7ZM144.3 213.8L107 192.3V199.6L144.4 221.2V213.8H144.3ZM147.3 215.5V222.8L152.9 226.1V218.8L147.3 215.5Z" fill="#2A2F6D"/>
<path d="M161.5 230.1V231L155.9 227.8V220.5L156.7 221V227.4L161.5 230.1ZM107.8 199.1V192.7L107 192.2V199.5L144.4 221.1V220.2L107.8 199.1ZM148.1 222.4V216L147.3 215.5V222.8L152.9 226.1V225.2L148.1 222.4Z" fill="#262856"/>
<path d="M158.1 225.2C158.5 226.1 159.4 226.8 160.1 226.8C160.8 226.8 161 226.1 160.6 225.2C160.2 224.3 159.3 223.6 158.6 223.6C157.9 223.5 157.7 224.3 158.1 225.2Z" fill="#2B3180"/>
<path d="M160.6 226.6C159.9 226.6 159 225.9 158.6 225C158.3 224.4 158.4 223.9 158.6 223.6C158 223.7 157.8 224.4 158.2 225.2C158.6 226.1 159.5 226.8 160.2 226.8C160.3 226.8 160.5 226.7 160.6 226.6Z" fill="#262856"/>
<path d="M161.5 238.9V246.2L155.9 243V235.7L161.5 238.9ZM144.3 229L107 207.4V214.7L144.4 236.3V229H144.3ZM147.3 230.7V238L152.9 241.3V234L147.3 230.7Z" fill="#2A2F6D"/>
<path d="M161.5 245.3V246.2L155.9 243V235.7L156.7 236.2V242.6L161.5 245.3ZM107.8 214.3V207.9L107 207.4V214.7L144.4 236.3V235.4L107.8 214.3ZM148.1 237.6V231.2L147.3 230.7V238L152.9 241.3V240.4L148.1 237.6Z" fill="#262856"/>
<path d="M158.1 240.4C158.5 241.3 159.4 242 160.1 242C160.8 242 161 241.3 160.6 240.4C160.2 239.5 159.3 238.8 158.6 238.8C157.9 238.7 157.7 239.5 158.1 240.4Z" fill="#2B3180"/>
<path d="M160.6 241.8C159.9 241.8 159 241.1 158.6 240.2C158.3 239.6 158.4 239.1 158.6 238.8C158 238.9 157.8 239.6 158.2 240.4C158.6 241.3 159.5 242 160.2 242C160.3 242 160.5 241.9 160.6 241.8C160.6 241.7 160.6 241.8 160.6 241.8Z" fill="#262856"/>
<path d="M161.5 254.1V261.4L155.9 258.2V250.9L161.5 254.1ZM144.3 244.2L107 222.6V229.9L144.4 251.5V244.2H144.3ZM147.3 245.9V253.2L152.9 256.5V249.2L147.3 245.9Z" fill="#2A2F6D"/>
<path d="M161.5 260.5V261.4L155.9 258.2V250.9L156.7 251.4V257.8L161.5 260.5ZM107.8 229.5V223.1L107 222.6V229.9L144.4 251.5V250.6L107.8 229.5ZM148.1 252.8V246.4L147.3 245.9V253.2L152.9 256.5V255.6L148.1 252.8Z" fill="#262856"/>
<path d="M158.1 255.6C158.5 256.5 159.4 257.2 160.1 257.2C160.8 257.2 161 256.5 160.6 255.6C160.2 254.7 159.3 254 158.6 254C157.9 253.9 157.7 254.7 158.1 255.6Z" fill="#2B3180"/>
<path d="M160.6 257C159.9 257 159 256.3 158.6 255.4C158.3 254.8 158.4 254.3 158.6 254C158 254.1 157.8 254.8 158.2 255.6C158.6 256.5 159.5 257.2 160.2 257.2C160.3 257.2 160.5 257.1 160.6 257C160.6 256.9 160.6 257 160.6 257Z" fill="#262856"/>
<path d="M161.5 269.3V276.6L155.9 273.4V266.1L161.5 269.3ZM144.3 259.4L107 237.8V245.1L144.4 266.7V259.4H144.3ZM147.3 261.1V268.4L152.9 271.7V264.4L147.3 261.1Z" fill="#2A2F6D"/>
<path d="M161.5 275.7V276.6L155.9 273.4V266.1L156.7 266.6V273L161.5 275.7ZM107.8 244.7V238.3L107 237.8V245.1L144.4 266.7V265.8L107.8 244.7ZM148.1 268V261.6L147.3 261.1V268.4L152.9 271.7V270.8L148.1 268Z" fill="#262856"/>
<path d="M158.1 270.8C158.5 271.7 159.4 272.4 160.1 272.4C160.8 272.4 161 271.7 160.6 270.8C160.2 269.9 159.3 269.2 158.6 269.2C157.9 269.1 157.7 269.8 158.1 270.8Z" fill="#2B3180"/>
<path d="M160.6 272.1C159.9 272.1 159 271.4 158.6 270.5C158.3 269.9 158.4 269.4 158.6 269.1C158 269.2 157.8 269.9 158.2 270.7C158.6 271.6 159.5 272.3 160.2 272.3C160.3 272.4 160.5 272.3 160.6 272.1Z" fill="#262856"/>
<path d="M161.5 284.5V291.8L155.9 288.6V281.3L161.5 284.5ZM144.3 274.6L107 253V260.3L144.4 281.9V274.6H144.3ZM147.3 276.3V283.6L152.9 286.9V279.6L147.3 276.3Z" fill="#2A2F6D"/>
<path d="M161.5 290.9V291.8L155.9 288.6V281.3L156.7 281.8V288.2L161.5 290.9ZM107.8 259.9V253.5L107 253V260.3L144.4 281.9V281L107.8 259.9ZM148.1 283.2V276.8L147.3 276.3V283.6L152.9 286.9V286L148.1 283.2Z" fill="#262856"/>
<path d="M158.1 285.9C158.5 286.8 159.4 287.5 160.1 287.5C160.8 287.5 161 286.8 160.6 285.9C160.2 285 159.3 284.3 158.6 284.3C157.9 284.3 157.7 285 158.1 285.9Z" fill="#2B3180"/>
<path d="M160.6 287.3C159.9 287.3 159 286.6 158.6 285.7C158.3 285.1 158.4 284.6 158.6 284.3C158 284.4 157.8 285.1 158.2 285.9C158.6 286.8 159.5 287.5 160.2 287.5C160.3 287.6 160.5 287.5 160.6 287.3Z" fill="#262856"/>
<path d="M161.5 299.7V307L155.9 303.8V296.5L161.5 299.7ZM144.3 289.8L107 268.2V275.5L144.4 297.1V289.8H144.3ZM147.3 291.5V298.8L152.9 302.1V294.8L147.3 291.5Z" fill="#2A2F6D"/>
<path d="M161.5 306.1V307L155.9 303.8V296.5L156.7 297V303.4L161.5 306.1ZM107.8 275.1V268.7L107 268.2V275.5L144.4 297.1V296.2L107.8 275.1ZM148.1 298.4V292L147.3 291.5V298.8L152.9 302.1V301.2L148.1 298.4Z" fill="#262856"/>
<path d="M158.1 301.1C158.5 302 159.4 302.7 160.1 302.7C160.8 302.7 161 302 160.6 301.1C160.2 300.2 159.3 299.5 158.6 299.5C157.9 299.5 157.7 300.2 158.1 301.1Z" fill="#2B3180"/>
<path d="M160.6 302.5C159.9 302.5 159 301.8 158.6 300.9C158.3 300.3 158.4 299.8 158.6 299.5C158 299.6 157.8 300.3 158.2 301.1C158.6 302 159.5 302.7 160.2 302.7C160.3 302.8 160.5 302.7 160.6 302.5Z" fill="#262856"/>
<path d="M110.5 312.9L107 310.9V281.9L110.5 284V312.9Z" fill="#BA5CE1"/>
<path d="M117.8 317.1L114.2 315V286.1L117.8 288.1V317.1Z" fill="#BA5CE1"/>
<path d="M125.1 321.2L121.5 319.2V290.2L125.1 292.3V321.2Z" fill="#BA5CE1"/>
<path d="M132.4 325.4L128.8 323.3V294.4L132.4 296.4V325.4Z" fill="#BA5CE1"/>
<path d="M139.6 329.6L136.1 327.5V298.5L139.6 300.6V329.6Z" fill="#BA5CE1"/>
<path d="M146.9 333.7L143.4 331.7V302.7L146.9 304.7V333.7Z" fill="#BA5CE1"/>
<path d="M154.2 337.9L150.6 335.8V306.9L154.2 308.9V337.9Z" fill="#BA5CE1"/>
<path d="M161.5 342L157.9 340V311L161.5 313.1V342Z" fill="#BA5CE1"/>
<path d="M146.9 193.9V178.6L143.4 176.6V191.8L146.9 193.9Z" fill="#BA5CE1"/>
<path d="M139.6 189.7V174.5L136.1 172.4V187.6L139.6 189.7Z" fill="#BA5CE1"/>
<path d="M161.5 202.3V187L157.9 184.9V200.2L161.5 202.3Z" fill="#BA5CE1"/>
<path d="M154.2 198.1V182.8L150.6 180.7V196L154.2 198.1Z" fill="#BA5CE1"/>
<path d="M110.5 172.9V157.9L107 155.8V170.8L110.5 172.9Z" fill="#BA5CE1"/>
<path d="M132.4 185.5V170.3L128.8 168.3V183.4L132.4 185.5Z" fill="#BA5CE1"/>
<path d="M117.8 177.1V162L114.2 160V175L117.8 177.1Z" fill="#BA5CE1"/>
<path d="M125.1 181.3V166.2L121.5 164.1V179.2L125.1 181.3Z" fill="#BA5CE1"/>
<path d="M185.4 193V200.3L179.8 203.5V196.2L185.4 193ZM197 193.5L234.4 171.9V164.6L197 186.3V193.5ZM188.4 191.2V198.5L194 195.2V188L188.4 191.2ZM185.4 204.3V211.6L179.8 214.8V207.5L185.4 204.3ZM197 204.9L234.4 183.3V176L197 197.6V204.9ZM188.4 202.6V209.9L194 206.6V199.3L188.4 202.6ZM185.4 215.7V223L179.8 226.2V218.9L185.4 215.7ZM197 216.3L234.4 194.7V187.4L197 209V216.3ZM188.4 214V221.3L194 218V210.7L188.4 214ZM176.2 234.5V191.1L176.5 190.9L236.5 156.3V199.7L236.2 199.9L176.2 234.5ZM177.3 191.8V232.7L235.4 199.2V158.3L177.3 191.8ZM185.4 248.5V255.8L179.8 259V251.7L185.4 248.5ZM197 249.1L234.4 227.5V220.2L197 241.9V249.1ZM188.4 246.8V254.1L194 250.8V243.5L188.4 246.8ZM185.4 259.9V267.2L179.8 270.4V263.1L185.4 259.9ZM197 260.5L234.4 238.9V231.6L197 253.2V260.5ZM188.4 258.2V265.5L194 262.2V254.9L188.4 258.2ZM185.4 271.3V278.6L179.8 281.8V274.5L185.4 271.3ZM197 271.9L234.4 250.3V243L197 264.6V271.9ZM188.4 269.6V276.9L194 273.6V266.3L188.4 269.6ZM176.2 290.1V246.7L176.5 246.5L236.5 211.9V255.3L236.2 255.5L176.2 290.1ZM177.3 247.3V288.2L235.4 254.7V213.8L177.3 247.3ZM185.4 304.1V311.4L179.8 314.6V307.3L185.4 304.1ZM197 304.7L234.4 283.1V275.8L197 297.5V304.7ZM188.4 302.4V309.7L194 306.4V299.1L188.4 302.4ZM185.4 315.5V322.8L179.8 326V318.7L185.4 315.5ZM197 316.1L234.4 294.5V287.2L197 308.8V316.1ZM188.4 313.8V321.1L194 317.8V310.5L188.4 313.8ZM185.4 326.9V334.2L179.8 337.4V330.1L185.4 326.9ZM197 327.5L234.4 305.9V298.6L197 320.2V327.5ZM188.4 325.2V332.5L194 329.2V321.9L188.4 325.2ZM176.2 345.7V302.3L176.5 302.1L236.5 267.5V310.9L236.2 311.1L176.2 345.7ZM177.3 302.9V343.8L235.4 310.3V269.4L177.3 302.9Z" fill="url(#paint11_linear)"/>
<path d="M415.8 324.6L365 295.2V302.4L415.8 331.7V324.6Z" fill="#2A2F6D"/>
<path d="M369 295.2L415.8 268.2L462.6 295.2L415.8 322.3L369 295.2Z" fill="#3252A0"/>
<path d="M415.8 270.5L458.6 295.2L415.8 319.9L373 295.2L415.8 270.5ZM415.8 265.9L365 295.2L415.8 324.5L466.6 295.2L415.8 265.9Z" fill="#B85CE1"/>
<path d="M466.6 302.4V295.2L415.8 324.6V331.7L466.6 302.4Z" fill="#0F4D95"/>
<path d="M452.8 294L415.8 272.6L378.8 294L415.8 315.4L452.8 294Z" fill="#C3C7E6"/>
<path d="M466.6 186L415.8 156.7L365 186L415.8 215.4L466.6 186Z" fill="#C3C7E6"/>
<path d="M415.8 215.4L365 186V193.2L415.8 222.5V215.4Z" fill="#2A2F6D"/>
<path d="M466.6 193.2V186L415.8 215.4V222.5L466.6 193.2Z" fill="#0F4D95"/>
<path d="M369 186L415.8 159L462.6 186L415.8 213.1L369 186Z" fill="#3252A0"/>
<path d="M415.8 161.3L458.6 186L415.8 210.7L373 186L415.8 161.3ZM415.8 156.7L365 186L415.8 215.3L466.6 186L415.8 156.7Z" fill="#B85CE1"/>
<path d="M436.5 181.3L437.5 181.9L408.6 198.6L407.6 198L436.5 181.3Z" fill="#B85CE1"/>
<path d="M415.399 202.5L414.399 201.9L443.299 185.2L444.299 185.8L415.399 202.5Z" fill="#B85CE1"/>
<path d="M439.9 183.3L440.9 183.8L412 200.5L411 200L439.9 183.3Z" fill="#B85CE1"/>
<path d="M433.2 179.4L434.1 179.9L405.2 196.6L404.3 196L433.2 179.4Z" fill="#B85CE1"/>
<path d="M416.2 169.6L417.2 170.1L388.3 186.8L387.3 186.3L416.2 169.6Z" fill="#B85CE1"/>
<path d="M423 173.5L424 174.1L395.1 190.7L394.1 190.2L423 173.5Z" fill="#B85CE1"/>
<path d="M429.799 177.4L430.699 178L401.799 194.7L400.899 194.1L429.799 177.4Z" fill="#B85CE1"/>
<path d="M419.6 171.5L420.6 172.1L391.7 188.8L390.7 188.2L419.6 171.5Z" fill="#B85CE1"/>
<path d="M426.4 175.5L427.4 176L398.5 192.7L397.5 192.1L426.4 175.5Z" fill="#B85CE1"/>
<path d="M415.8 315.4L378.8 294V201.2L415.8 222.5V315.4Z" fill="#044B8E"/>
<path d="M415.8 315.4L452.8 294V201.2L415.8 222.5V315.4Z" fill="#828EC6"/>
<path d="M424.099 220.7L420.399 222.8V224.9L424.099 222.8V220.7Z" fill="#044B8E"/>
<path d="M424.099 227L420.399 229.1V231.2L424.099 229.1V227Z" fill="#044B8E"/>
<path d="M425.199 220V222.1L445.599 210.4V208.3L425.199 220Z" fill="#044B8E"/>
<path d="M425.199 238.9V241.1L445.599 229.3V227.2L425.199 238.9Z" fill="#044B8E"/>
<path d="M425.199 232.6V234.7L445.599 223V220.9L425.199 232.6Z" fill="#044B8E"/>
<path d="M425.199 226.3V228.4L445.599 216.7V214.6L425.199 226.3Z" fill="#044B8E"/>
<path d="M424.099 252.2L420.399 254.3V256.4L424.099 254.3V252.2Z" fill="#044B8E"/>
<path d="M424.099 245.9L420.399 248V250.1L424.099 248V245.9Z" fill="#044B8E"/>
<path d="M424.099 239.6L420.399 241.7V243.8L424.099 241.7V239.6Z" fill="#044B8E"/>
<path d="M424.099 233.3L420.399 235.4V237.5L424.099 235.4V233.3Z" fill="#044B8E"/>
<path d="M425.199 283.1V285.2L445.599 273.4V271.3L425.199 283.1Z" fill="#044B8E"/>
<path d="M425.199 289.4V291.5L445.599 279.8V277.7L425.199 289.4Z" fill="#044B8E"/>
<path d="M424.099 258.5L420.399 260.6V262.7L424.099 260.6V258.5Z" fill="#044B8E"/>
<path d="M425.199 276.8V278.9L445.599 267.1V265L425.199 276.8Z" fill="#044B8E"/>
<path d="M425.199 295.7V297.8L445.599 286.1V284L425.199 295.7Z" fill="#044B8E"/>
<path d="M445.599 292.4V290.3L425.199 302V304.1L445.599 292.4Z" fill="#044B8E"/>
<path d="M425.199 251.6V253.7L445.599 241.9V239.8L425.199 251.6Z" fill="#044B8E"/>
<path d="M425.199 245.3V247.4L445.599 235.6V233.5L425.199 245.3Z" fill="#044B8E"/>
<path d="M425.199 270.5V272.6L445.599 260.8V258.7L425.199 270.5Z" fill="#044B8E"/>
<path d="M425.199 257.9V260L445.599 248.2V246.1L425.199 257.9Z" fill="#044B8E"/>
<path d="M425.199 264.2V266.3L445.599 254.5V252.4L425.199 264.2Z" fill="#044B8E"/>
<path d="M446.699 228.6L449.599 226.9V224.8L446.699 226.5V228.6Z" fill="#044B8E"/>
<path d="M446.699 253.9L449.599 252.2V250.1L446.699 251.8V253.9Z" fill="#044B8E"/>
<path d="M446.699 241.3L449.599 239.5V237.4L446.699 239.1V241.3Z" fill="#044B8E"/>
<path d="M446.699 247.6L449.599 245.9V243.8L446.699 245.5V247.6Z" fill="#044B8E"/>
<path d="M446.699 266.5L449.599 264.8V262.7L446.699 264.4V266.5Z" fill="#044B8E"/>
<path d="M446.699 260.2L449.599 258.5V256.4L446.699 258.1V260.2Z" fill="#044B8E"/>
<path d="M446.699 272.8L449.599 271.1V269L446.699 270.7V272.8Z" fill="#044B8E"/>
<path d="M446.699 234.9L449.599 233.2V231.1L446.699 232.8V234.9Z" fill="#044B8E"/>
<path d="M446.699 207.6V209.7L449.599 208V205.9L446.699 207.6Z" fill="#044B8E"/>
<path d="M446.699 216L449.599 214.3V212.2L446.699 213.9V216Z" fill="#044B8E"/>
<path d="M446.699 222.3L449.599 220.6V218.5L446.699 220.2V222.3Z" fill="#044B8E"/>
<path d="M424.099 290.1L420.399 292.2V294.3L424.099 292.2V290.1Z" fill="#044B8E"/>
<path d="M424.099 277.5L420.399 279.5V281.6L424.099 279.6V277.5Z" fill="#044B8E"/>
<path d="M424.099 264.8L420.399 266.9V269L424.099 266.9V264.8Z" fill="#044B8E"/>
<path d="M424.099 283.8L420.399 285.8V288L424.099 285.9V283.8Z" fill="#044B8E"/>
<path d="M424.099 271.1L420.399 273.2V275.3L424.099 273.2V271.1Z" fill="#044B8E"/>
<path d="M424.099 302.7L420.399 304.8V306.9L424.099 304.8V302.7Z" fill="#044B8E"/>
<path d="M446.699 285.4L449.599 283.7V281.6L446.699 283.3V285.4Z" fill="#044B8E"/>
<path d="M424.099 296.4L420.399 298.5V300.6L424.099 298.5V296.4Z" fill="#044B8E"/>
<path d="M446.699 291.7L449.599 290V287.9L446.699 289.6V291.7Z" fill="#044B8E"/>
<path d="M446.699 279.1L449.599 277.4V275.3L446.699 277V279.1Z" fill="#044B8E"/>
<path d="M404.6 275.8V277.9L407.3 279.5V277.4L404.6 275.8Z" fill="#D05EEB"/>
<path d="M404.6 269.5V271.6L407.3 273.2V271.1L404.6 269.5Z" fill="#D05EEB"/>
<path d="M404.6 263.2V265.3L407.3 266.9V264.8L404.6 263.2Z" fill="#D05EEB"/>
<path d="M404.6 282.1V284.2L407.3 285.8V283.7L404.6 282.1Z" fill="#D05EEB"/>
<path d="M404.6 294.7V296.9L407.3 298.4V296.3L404.6 294.7Z" fill="#D05EEB"/>
<path d="M404.6 288.4V290.5L407.3 292.1V290L404.6 288.4Z" fill="#D05EEB"/>
<path d="M404.6 244.3V246.4L407.3 248V245.8L404.6 244.3Z" fill="#D05EEB"/>
<path d="M404.6 231.7V233.8L407.3 235.3V233.2L404.6 231.7Z" fill="#D05EEB"/>
<path d="M404.6 225.3V227.5L407.3 229V226.9L404.6 225.3Z" fill="#D05EEB"/>
<path d="M404.6 238V240.1L407.3 241.6V239.5L404.6 238Z" fill="#D05EEB"/>
<path d="M404.6 256.9V259L407.3 260.6V258.5L404.6 256.9Z" fill="#D05EEB"/>
<path d="M407.3 302.6L404.6 301.1V303.2L407.3 304.7V302.6Z" fill="#D05EEB"/>
<path d="M404.6 250.6V252.7L407.3 254.3V252.2L404.6 250.6Z" fill="#D05EEB"/>
<path d="M403.4 283.6V281.5L400.7 279.9V282L403.4 283.6Z" fill="#D05EEB"/>
<path d="M403.4 258.4V256.2L400.7 254.7V256.8L403.4 258.4Z" fill="#D05EEB"/>
<path d="M403.4 233.1V231L400.7 229.4V231.5L403.4 233.1Z" fill="#D05EEB"/>
<path d="M403.4 252V249.9L400.7 248.4V250.5L403.4 252Z" fill="#D05EEB"/>
<path d="M403.4 239.4V237.3L400.7 235.7V237.9L403.4 239.4Z" fill="#D05EEB"/>
<path d="M400.7 216.8V218.9L403.4 220.5V218.4L400.7 216.8Z" fill="#D05EEB"/>
<path d="M403.4 226.8V224.7L400.7 223.1V225.2L403.4 226.8Z" fill="#D05EEB"/>
<path d="M403.4 271V268.9L400.7 267.3V269.4L403.4 271Z" fill="#D05EEB"/>
<path d="M403.4 289.9V287.8L400.7 286.2V288.3L403.4 289.9Z" fill="#D05EEB"/>
<path d="M403.4 296.2V294.1L400.7 292.5V294.6L403.4 296.2Z" fill="#D05EEB"/>
<path d="M404.6 219V221.1L407.3 222.7V220.6L404.6 219Z" fill="#D05EEB"/>
<path d="M403.4 277.3V275.2L400.7 273.6V275.7L403.4 277.3Z" fill="#D05EEB"/>
<path d="M403.4 264.7V262.6L400.7 261V263.1L403.4 264.7Z" fill="#D05EEB"/>
<path d="M403.4 302.5V300.4L400.7 298.8V300.9L403.4 302.5Z" fill="#D05EEB"/>
<path d="M403.4 245.7V243.6L400.7 242.1V244.2L403.4 245.7Z" fill="#D05EEB"/>
<path d="M408.399 280.1L410.999 281.6V279.5L408.399 278V280.1Z" fill="#D05EEB"/>
<path d="M408.399 261.2L410.999 262.7V260.6L408.399 259.1V261.2Z" fill="#D05EEB"/>
<path d="M399.6 216.2L381.8 205.9V208L399.6 218.3V216.2Z" fill="#D05EEB"/>
<path d="M408.399 273.8L410.999 275.3V273.2L408.399 271.7V273.8Z" fill="#D05EEB"/>
<path d="M408.399 299.1L410.999 300.6V298.5L408.399 297V299.1Z" fill="#D05EEB"/>
<path d="M408.399 305.4L410.999 306.9V304.8L408.399 303.3V305.4Z" fill="#D05EEB"/>
<path d="M408.399 286.5L410.999 288V285.8L408.399 284.3V286.5Z" fill="#D05EEB"/>
<path d="M408.399 292.8L410.999 294.3V292.2L408.399 290.7V292.8Z" fill="#D05EEB"/>
<path d="M408.399 229.7L410.999 231.2V229.1L408.399 227.6V229.7Z" fill="#D05EEB"/>
<path d="M408.399 254.9L410.999 256.4V254.3L408.399 252.8V254.9Z" fill="#D05EEB"/>
<path d="M408.399 221.3V223.4L410.999 224.9V222.8L408.399 221.3Z" fill="#D05EEB"/>
<path d="M408.399 236L410.999 237.5V235.4L408.399 233.9V236Z" fill="#D05EEB"/>
<path d="M408.399 248.6L410.999 250.1V248L408.399 246.5V248.6Z" fill="#D05EEB"/>
<path d="M408.399 242.3L410.999 243.8V241.7L408.399 240.2V242.3Z" fill="#D05EEB"/>
<path d="M408.399 267.5L410.999 269V266.9L408.399 265.4V267.5Z" fill="#D05EEB"/>
<path d="M399.6 235.1L381.8 224.8V226.9L399.6 237.2V235.1Z" fill="#D05EEB"/>
<path d="M399.6 241.4L381.8 231.1V233.2L399.6 243.5V241.4Z" fill="#D05EEB"/>
<path d="M399.6 247.7L381.8 237.4V239.5L399.6 249.8V247.7Z" fill="#D05EEB"/>
<path d="M399.6 228.8L381.8 218.5V220.6L399.6 230.9V228.8Z" fill="#D05EEB"/>
<path d="M399.6 254L381.8 243.8V245.9L399.6 256.1V254Z" fill="#D05EEB"/>
<path d="M399.6 222.5L381.8 212.2V214.3L399.6 224.6V222.5Z" fill="#D05EEB"/>
<path d="M399.6 266.6L381.8 256.4V258.5L399.6 268.8V266.6Z" fill="#D05EEB"/>
<path d="M399.6 260.3L381.8 250.1V252.2L399.6 262.4V260.3Z" fill="#D05EEB"/>
<path d="M399.6 285.6L381.8 275.3V277.4L399.6 287.7V285.6Z" fill="#D05EEB"/>
<path d="M399.6 291.9L381.8 281.6V283.7L399.6 294V291.9Z" fill="#D05EEB"/>
<path d="M399.6 279.3L381.8 269V271.1L399.6 281.4V279.3Z" fill="#D05EEB"/>
<path d="M399.6 298.2L381.8 287.9V290L399.6 300.3V298.2Z" fill="#D05EEB"/>
<path d="M399.6 273L381.8 262.7V264.8L399.6 275.1V273Z" fill="#D05EEB"/>
<path d="M415.8 222.5V324.6L365 295.2V193.2L415.8 222.5Z" fill="url(#paint12_linear)"/>
<path d="M415.8 222.5V324.6L466.6 295.2V193.2L415.8 222.5Z" fill="url(#paint13_linear)"/>
<path d="M432.5 190.3H422.2V331.7H432.5V190.3Z" fill="url(#paint14_linear)"/>
<path d="M442.9 185.4H438.9V326.8H442.9V185.4Z" fill="url(#paint15_linear)"/>
<path d="M457.501 181.7H448.101V323.1H457.501V181.7Z" fill="url(#paint16_linear)"/>
<path d="M395.4 190.3H385.4V331.7H395.4V190.3Z" fill="url(#paint17_linear)"/>
<path d="M410.401 192.5H404.801V333.9H410.401V192.5Z" fill="url(#paint18_linear)"/>
<path opacity="0.11" d="M426.4 171.3C417.2 168.8 405 171.6 399.2 177.4C393.4 183.2 396.1 189.9 405.3 192.4C414.5 194.9 426.7 192.1 432.5 186.3C438.3 180.5 435.5 173.7 426.4 171.3Z" fill="url(#paint19_linear)"/>
<path opacity="0.15" d="M422.901 174.7C416.701 173 408.501 174.9 404.601 178.8C400.701 182.7 402.501 187.2 408.701 188.9C414.901 190.6 423.101 188.7 427.001 184.8C430.901 180.9 429.101 176.4 422.901 174.7Z" fill="url(#paint20_linear)"/>
<path opacity="0.25" d="M420.201 177.4C416.301 176.4 411.201 177.5 408.801 180C406.301 182.5 407.501 185.3 411.401 186.3C415.301 187.3 420.401 186.2 422.801 183.7C425.301 181.3 424.101 178.4 420.201 177.4Z" fill="url(#paint21_linear)"/>
<path d="M417.7 179.9C416 179.5 413.8 179.9 412.8 181C411.7 182.1 412.2 183.3 413.9 183.7C415.6 184.1 417.8 183.7 418.8 182.6C419.9 181.6 419.4 180.4 417.7 179.9Z" stroke="#9CD5DF" stroke-width="0.5" stroke-miterlimit="10" stroke-linecap="round" stroke-linejoin="round"/>
<path d="M217.4 300V382.2L220 383.6L327.4 318.7L328.8 236.4C328.8 236.4 327 235.4 326.4 235.1C325.8 234.7 324.9 234.6 324.2 235.1L220.3 295.1C218.5 296.1 217.4 298 217.4 300Z" fill="#4D6BB2"/>
<path d="M220 301.5V383.7L330 320.2V238.4C330 236.8 328.2 235.7 326.8 236.6L222.9 296.6C221.1 297.5 220 299.4 220 301.5Z" fill="#2E2B7C"/>
<path d="M225.4 300.1V375.2L326.8 316.8V241.7L225.4 300.1Z" fill="#354093"/>
<path d="M330 323.3L220 383.6V386.8L296.8 430.4C298.6 431.4 300.7 431.4 302.5 430.4L405.3 371.1C406.3 370.6 406.7 369.6 406.7 368.6C406.7 367.6 406.7 365.4 406.7 365.4L330 323.3Z" fill="#4D6BB2"/>
<path d="M330 320.2L220 383.7L296.8 427.3C298.6 428.3 300.7 428.3 302.5 427.3L405.3 368C407.2 366.9 407.2 364.1 405.3 363L330 320.2Z" fill="#93BEE6"/>
<path d="M369.3 353.4L327.8 329.8L236.9 382.3L278.4 405.9L369.3 353.4Z" fill="#7EB3E1"/>
<path d="M332.801 334.3L328.201 331.7L241.601 381.7L246.101 384.3L332.801 334.3Z" fill="#0F4D95"/>
<path d="M339.101 337.9L334.601 335.3L248.001 385.3L252.501 387.9L339.101 337.9Z" fill="#0F4D95"/>
<path d="M345.501 341.6L341.001 339L254.301 389L258.901 391.6L345.501 341.6Z" fill="#0F4D95"/>
<path d="M351.9 345.2L347.3 342.6L260.7 392.6L265.3 395.2L351.9 345.2Z" fill="#0F4D95"/>
<path d="M358.201 348.8L353.701 346.2L267.101 396.2L271.601 398.8L358.201 348.8Z" fill="#0F4D95"/>
<path d="M364.601 352.4L360.101 349.9L273.501 399.9L278.001 402.5L364.601 352.4Z" fill="#0F4D95"/>
<path d="M248 377.5L259.9 384.3" stroke="#8DB1DE" stroke-miterlimit="10"/>
<path d="M253.5 374.4L259.4 377.7" stroke="#8DB1DE" stroke-miterlimit="10"/>
<path d="M264.1 382.6L270.1 386" stroke="#8DB1DE" stroke-miterlimit="10"/>
<path d="M274 384.3L280 387.7" stroke="#8DB1DE" stroke-miterlimit="10"/>
<path d="M277 389.4L283 392.8" stroke="#8DB1DE" stroke-miterlimit="10"/>
<path d="M281.2 395.2L287.2 398.6" stroke="#8DB1DE" stroke-miterlimit="10"/>
<path d="M285.7 391.6L291.6 394.9" stroke="#8DB1DE" stroke-miterlimit="10"/>
<path d="M324.7 369.9L330.6 373.2" stroke="#8DB1DE" stroke-miterlimit="10"/>
<path d="M329.8 366.7L335.7 370" stroke="#8DB1DE" stroke-miterlimit="10"/>
<path d="M334.9 363.5L340.8 366.9" stroke="#8DB1DE" stroke-miterlimit="10"/>
<path d="M340 360.3L346 363.7" stroke="#8DB1DE" stroke-miterlimit="10"/>
<path d="M355.3 351.8L361.2 355.2" stroke="#8DB1DE" stroke-miterlimit="10"/>
<path d="M291.4 388.6L297.3 391.9" stroke="#8DB1DE" stroke-miterlimit="10"/>
<path d="M258.3 371.5L264.3 374.9" stroke="#8DB1DE" stroke-miterlimit="10"/>
<path d="M263.2 368.7L269.2 372.1" stroke="#8DB1DE" stroke-miterlimit="10"/>
<path d="M268.1 365.9L274 369.3" stroke="#8DB1DE" stroke-miterlimit="10"/>
<path d="M273 363.1L278.9 366.5" stroke="#8DB1DE" stroke-miterlimit="10"/>
<path d="M277.8 360.3L283.8 363.7" stroke="#8DB1DE" stroke-miterlimit="10"/>
<path d="M282.7 357.5L288.7 360.8" stroke="#8DB1DE" stroke-miterlimit="10"/>
<path d="M287.6 354.6L293.5 358" stroke="#8DB1DE" stroke-miterlimit="10"/>
<path d="M292.4 351.8L298.4 355.2" stroke="#8DB1DE" stroke-miterlimit="10"/>
<path d="M297.3 349L303.3 352.4" stroke="#8DB1DE" stroke-miterlimit="10"/>
<path d="M302.2 346.2L308.1 349.6" stroke="#8DB1DE" stroke-miterlimit="10"/>
<path d="M307.1 343.4L313 346.7" stroke="#8DB1DE" stroke-miterlimit="10"/>
<path d="M311.9 340.5L317.9 343.9" stroke="#8DB1DE" stroke-miterlimit="10"/>
<path d="M316.8 337.7L322.8 341.1" stroke="#8DB1DE" stroke-miterlimit="10"/>
<path d="M321.7 334.9L327.6 338.3" stroke="#8DB1DE" stroke-miterlimit="10"/>
<path d="M329 382.2L299.9 399C299.4 399.3 299.4 400.1 299.9 400.4L316 409.5C316.7 409.9 317.6 409.9 318.4 409.5L347.5 392.7C348 392.4 348 391.6 347.5 391.3L331.4 382.2C330.6 381.8 329.7 381.8 329 382.2Z" fill="#658FCA"/>
<path d="M299.9 399.5L329 382.7C329.7 382.3 330.6 382.3 331.4 382.7L347.5 391.8C347.7 391.9 347.8 392 347.8 392.2C347.9 391.9 347.8 391.4 347.5 391.2L331.4 382.1C330.7 381.7 329.8 381.7 329 382.1L299.9 399C299.5 399.2 299.4 399.6 299.6 400C299.7 399.8 299.8 399.6 299.9 399.5Z" fill="#4676BA"/>
<path d="M263.4 309.6V303.2L295.5 284.8V291.2L263.4 309.6ZM264 303.5V308.6L295 290.8V285.7L264 303.5ZM263.4 319.3V312.9L295.5 294.5V300.9L263.4 319.3ZM264 313.2V318.3L295 300.5V295.4L264 313.2Z" fill="url(#paint22_linear)"/>
<path d="M268 314.2C267.7 314.8 266.9 315.2 266.4 315.2C265.8 315.2 265.6 314.7 266 314.2C266.3 313.6 267.1 313.2 267.6 313.2C268.1 313.1 268.3 313.6 268 314.2ZM271.3 311.1C270.7 311.1 270 311.6 269.7 312.1C269.4 312.7 269.6 313.1 270.1 313.1C270.7 313.1 271.4 312.6 271.7 312.1C272 311.5 271.9 311.1 271.3 311.1ZM275 309C274.4 309 273.7 309.5 273.4 310C273.1 310.6 273.3 311 273.8 311C274.4 311 275.1 310.5 275.4 310C275.8 309.4 275.6 309 275 309ZM278.7 306.9C278.1 306.9 277.4 307.4 277.1 307.9C276.8 308.5 277 308.9 277.5 308.9C278.1 308.9 278.8 308.4 279.1 307.9C279.5 307.4 279.3 306.9 278.7 306.9ZM282.4 304.8C281.8 304.8 281.1 305.3 280.8 305.8C280.5 306.4 280.7 306.8 281.2 306.8C281.8 306.8 282.5 306.3 282.8 305.8C283.2 305.3 283 304.8 282.4 304.8Z" fill="url(#paint23_linear)"/>
<path d="M282.3 313.2L282.2 313.7L282.9 313.9L280 315.6L280.3 316.1L283.1 314.5L282.8 315.2L283.3 315.4L284 313.6L282.3 313.2Z" fill="url(#paint24_linear)"/>
<path opacity="0.11" d="M325.201 389.9C320.201 388.6 313.501 390 310.401 393.2C307.201 396.4 308.701 400 313.701 401.4C318.701 402.7 325.401 401.3 328.501 398.1C331.701 394.9 330.301 391.2 325.201 389.9Z" fill="url(#paint25_linear)"/>
<path opacity="0.15" d="M323.401 391.8C320.001 390.9 315.601 391.9 313.401 394C311.301 396.1 312.301 398.6 315.601 399.5C319.001 400.4 323.401 399.4 325.601 397.3C327.701 395.1 326.701 392.7 323.401 391.8Z" fill="url(#paint26_linear)"/>
<path opacity="0.25" d="M321.901 393.2C319.801 392.6 317.001 393.3 315.701 394.6C314.401 395.9 315.001 397.5 317.101 398C319.201 398.6 322.001 397.9 323.301 396.6C324.701 395.3 324.001 393.8 321.901 393.2Z" fill="url(#paint27_linear)"/>
<path d="M320.5 394.6C319.6 394.4 318.4 394.6 317.8 395.2C317.2 395.8 317.5 396.4 318.4 396.7C319.3 396.9 320.5 396.7 321.1 396.1C321.7 395.5 321.4 394.8 320.5 394.6Z" stroke="#9CD5DF" stroke-width="0.5" stroke-miterlimit="10" stroke-linecap="round" stroke-linejoin="round"/>
<path d="M166.8 403.3L114.5 433.2C114.5 433.2 114.5 434.2 114.5 435.3C114.5 436.3 115 437.3 116 437.9L191.1 481.3C193.8 482.9 197.2 482.9 200 481.3L251.2 452.2C252.2 451.6 252.7 450.7 252.7 449.7C252.7 448.7 252.7 447.6 252.7 447.6L175.7 403.4C173 401.7 169.6 401.7 166.8 403.3Z" fill="#4D6BB2"/>
<path d="M166.8 401.2L116 430.5C114 431.7 114 434.5 116 435.7L191.1 479.1C193.8 480.7 197.2 480.7 200 479.1L251.2 450C253.2 448.9 253.2 446 251.2 444.8L175.7 401.2C173 399.6 169.6 399.6 166.8 401.2Z" fill="#2E2B7C"/>
<path d="M172.9 405.5L123.9 433.7L192.8 473.5L242.2 445.5L172.9 405.5Z" fill="#354093"/>
<path d="M225.4 459.2C224.2 458.9 222.5 459.2 221.7 460C220.9 460.8 221.3 461.7 222.5 462C223.7 462.3 225.4 462 226.2 461.2C227 460.5 226.6 459.6 225.4 459.2Z" fill="#0F4D95"/>
<path opacity="0.11" d="M195.4 429.1C185.2 426.4 171.6 429.4 165.1 435.9C158.6 442.4 161.6 449.9 171.9 452.6C182.1 455.3 195.7 452.3 202.2 445.8C208.7 439.3 205.7 431.8 195.4 429.1Z" fill="url(#paint28_linear)"/>
<path opacity="0.15" d="M191.6 432.9C184.7 431.1 175.6 433.1 171.2 437.5C166.8 441.9 168.9 446.9 175.8 448.7C182.7 450.5 191.8 448.5 196.2 444.1C200.6 439.7 198.5 434.8 191.6 432.9Z" fill="url(#paint29_linear)"/>
<path opacity="0.25" d="M188.601 435.9C184.301 434.7 178.601 436 175.801 438.8C173.101 441.5 174.301 444.7 178.701 445.8C183.001 447 188.701 445.7 191.501 442.9C194.201 440.2 192.901 437 188.601 435.9Z" fill="url(#paint30_linear)"/>
<path d="M185.8 438.7C183.9 438.2 181.5 438.8 180.3 439.9C179.1 441.1 179.7 442.4 181.5 442.9C183.4 443.4 185.8 442.8 187 441.7C188.2 440.6 187.7 439.2 185.8 438.7Z" stroke="#9CD5DF" stroke-width="0.5" stroke-miterlimit="10" stroke-linecap="round" stroke-linejoin="round"/>
<path d="M440.6 411.4L415 397.5C413.4 396.6 411.5 396.6 409.9 397.5L354.3 429.2C354.3 429.2 354.3 430 354.3 430.5C354.2 431.2 354.5 431.9 355.2 432.3L379.8 446.3C381.4 447.2 383.3 447.2 384.9 446.3L439.6 414.7C440.1 414.4 440.4 414 440.5 413.5C440.7 412.7 440.6 411.4 440.6 411.4Z" fill="#4D6BB2"/>
<path d="M439.7 409.8L415.1 395.8C413.5 394.9 411.6 394.9 410 395.8L355.3 427.4C354.1 428.1 354.1 429.9 355.3 430.6L379.9 444.6C381.5 445.5 383.4 445.5 385 444.6L439.7 413C440.9 412.2 440.9 410.5 439.7 409.8Z" fill="#2E2B7C"/>
<path d="M436 412.6L410.3 398L359 427.7L384.6 442.3L436 412.6Z" fill="#354093"/>
<path opacity="0.11" d="M404.3 410.2C398.4 408.6 390.5 410.4 386.7 414.1C382.9 417.9 384.7 422.2 390.6 423.8C396.5 425.4 404.4 423.6 408.2 419.9C412 416.1 410.2 411.7 404.3 410.2Z" fill="url(#paint31_linear)"/>
<path opacity="0.15" d="M402 412.4C398.1 411.3 392.8 412.5 390.3 415C387.8 417.5 389 420.4 392.9 421.4C396.8 422.4 402.1 421.3 404.6 418.8C407.1 416.4 406 413.5 402 412.4Z" fill="url(#paint32_linear)"/>
<path opacity="0.25" d="M399.9 414.5C397.8 413.9 395 414.6 393.7 415.9C392.4 417.2 393 418.8 395.1 419.3C397.2 419.9 400 419.2 401.3 417.9C402.6 416.7 402 415.1 399.9 414.5Z" fill="url(#paint33_linear)"/>
<path d="M398.5 415.9C397.6 415.7 396.4 415.9 395.8 416.5C395.2 417.1 395.5 417.7 396.4 418C397.3 418.2 398.5 418 399.1 417.4C399.7 416.8 399.4 416.2 398.5 415.9Z" stroke="#9CD5DF" stroke-width="0.5" stroke-miterlimit="10" stroke-linecap="round" stroke-linejoin="round"/>
<path d="M183.201 120.9L310.401 194.4C315.901 197.6 319.301 203.5 319.301 209.9V395" stroke="#9CD5DF" stroke-miterlimit="10" stroke-linecap="round" stroke-linejoin="round"/>
<path d="M319.501 289.1L388.601 329C394.101 332.2 397.501 338.1 397.501 344.5V416.8" stroke="#9CD5DF" stroke-miterlimit="10" stroke-linecap="round" stroke-linejoin="round"/>
<path d="M192.501 113.6L81.8008 177.5C78.3008 179.5 78.3008 184.6 81.8008 186.7L174.701 240.3C180.201 243.5 183.601 249.4 183.601 255.8V440.9" stroke="#9CD5DF" stroke-miterlimit="10" stroke-linecap="round" stroke-linejoin="round"/>
<path d="M415.8 182.1V122C415.8 115.6 412.4 109.7 406.9 106.5L313.6 52.6C308.8 49.8 302.9 49.8 298.1 52.6L206.4 105.6" stroke="#9CD5DF" stroke-miterlimit="10" stroke-linecap="round" stroke-linejoin="round"/>
<path d="M261.801 15.9C255.501 19.3 249.501 24.2 244.101 30.1C237.401 6.60002 215.501 -1.19998 188.901 13.3C166.901 25.3 147.401 49.4 136.801 75.2C133.501 75.2 129.801 76.2 125.801 78.4C111.401 86.2 99.5005 105.8 99.1005 122.1C99.1005 122.5 99.1005 122.8 99.1005 123.1C95.1005 123.3 90.6005 124.6 85.8005 127.2C67.4005 137.2 52.1005 162.2 51.6005 183.1C51.1005 204 65.5005 212.8 83.9005 202.8L259.601 107.2C281.801 95.1 300.201 64.9 300.901 39.7C301.401 14.5 284.001 3.90002 261.801 15.9Z" fill="url(#paint34_linear)"/>
<path d="M261.801 15.9001C258.101 17.9001 254.601 20.4001 251.201 23.3001L232.101 11.6001C221.601 3.90006 206.201 3.80006 188.901 13.3001C166.901 25.3001 147.401 49.4001 136.801 75.2001C133.501 75.2001 129.801 76.2001 125.801 78.4001C111.401 86.2001 99.5009 105.8 99.1009 122.1C99.1009 122.5 99.1009 122.8 99.1009 123.1C95.1009 123.3 90.6009 124.6 85.8009 127.2C67.4009 137.2 52.1009 162.2 51.6009 183.1C51.3009 193.5 54.8009 200.8 60.5009 204.4L60.6009 204.5L107.301 233.2L119.001 183.8L259.501 107.3C281.701 95.2001 300.101 65.0001 300.801 39.8001C301.401 14.5001 284.001 3.90006 261.801 15.9001Z" fill="url(#paint35_radial)"/>
<path d="M337.4 43.1001L290.1 14.0001C283 9.50006 273 9.80006 261.9 15.9001C258.2 17.9001 254.7 20.4001 251.3 23.3001L232.2 11.6001C221.7 3.90006 206.3 3.80006 189 13.3001C167 25.3001 147.5 49.4001 136.9 75.2001C133.6 75.2001 129.9 76.2001 125.9 78.4001C111.5 86.2001 99.6005 105.8 99.2005 122.1C99.2005 122.5 99.2005 122.8 99.2005 123.1C95.2005 123.3 90.7005 124.6 85.9005 127.2C67.5005 137.2 52.2005 162.2 51.7005 183.1C51.4005 193.5 54.9005 200.8 60.6005 204.4L60.7005 204.5L107.4 233.2L119 183.8L259.5 107.3C277.5 97.5001 293 75.8001 298.6 54.5001L337.4 43.1001Z" fill="#724CAE"/>
<path d="M308.701 44.8C302.401 48.2 296.401 53.1 291.001 59C284.301 35.5 262.401 27.7 235.801 42.2C213.801 54.2 194.301 78.3 183.701 104.1C180.401 104.1 176.701 105.1 172.701 107.3C158.301 115.1 146.401 134.7 146.001 151C146.001 151.4 146.001 151.7 146.001 152C142.001 152.2 137.501 153.5 132.701 156.1C114.301 166.1 99.0009 191.1 98.5009 212C98.0009 232.9 112.401 241.7 130.801 231.7L306.501 136.1C328.701 124 347.101 93.8 347.801 68.6C348.301 43.4 330.901 32.7 308.701 44.8Z" fill="url(#paint36_linear)"/>
</g>
<defs>
<linearGradient id="paint0_linear" x1="102.683" y1="247.483" x2="454.626" y2="476.529" gradientUnits="userSpaceOnUse">
<stop stop-color="#DEE5F0"/>
<stop offset="1" stop-color="#DEE5F0" stop-opacity="0.27"/>
</linearGradient>
<linearGradient id="paint1_linear" x1="27.4296" y1="442.197" x2="267.132" y2="442.197" gradientUnits="userSpaceOnUse">
<stop offset="0.1" stop-color="#3262AC" stop-opacity="0"/>
<stop offset="0.6172" stop-color="#3262AC" stop-opacity="0.2"/>
<stop offset="0.9" stop-color="#3262AC" stop-opacity="0"/>
</linearGradient>
<linearGradient id="paint2_linear" x1="125.273" y1="395.091" x2="520.331" y2="395.091" gradientUnits="userSpaceOnUse">
<stop offset="0.1" stop-color="#3262AC" stop-opacity="0"/>
<stop offset="0.6172" stop-color="#3262AC" stop-opacity="0.2"/>
<stop offset="0.9" stop-color="#3262AC" stop-opacity="0"/>
</linearGradient>
<linearGradient id="paint3_linear" x1="250.348" y1="357.454" x2="519.176" y2="357.454" gradientUnits="userSpaceOnUse">
<stop offset="0.1" stop-color="#3262AC" stop-opacity="0"/>
<stop offset="0.6172" stop-color="#3262AC" stop-opacity="0.2"/>
<stop offset="0.9" stop-color="#3262AC" stop-opacity="0"/>
</linearGradient>
<linearGradient id="paint4_linear" x1="264.536" y1="296.624" x2="529.571" y2="296.624" gradientUnits="userSpaceOnUse">
<stop offset="0.1" stop-color="#3262AC" stop-opacity="0"/>
<stop offset="0.6172" stop-color="#3262AC" stop-opacity="0.2"/>
<stop offset="0.9" stop-color="#3262AC" stop-opacity="0"/>
</linearGradient>
<linearGradient id="paint5_linear" x1="55.9482" y1="405.889" x2="385.854" y2="405.889" gradientUnits="userSpaceOnUse">
<stop offset="0.1" stop-color="#3262AC" stop-opacity="0"/>
<stop offset="0.6172" stop-color="#3262AC" stop-opacity="0.2"/>
<stop offset="0.9" stop-color="#3262AC" stop-opacity="0"/>
</linearGradient>
<linearGradient id="paint6_linear" x1="152.242" y1="371.767" x2="188.293" y2="309.326" gradientUnits="userSpaceOnUse">
<stop stop-color="#3262AC" stop-opacity="0.2"/>
<stop offset="1" stop-color="#3262AC"/>
</linearGradient>
<linearGradient id="paint7_linear" x1="168.725" y1="481.77" x2="198.584" y2="430.052" gradientUnits="userSpaceOnUse">
<stop stop-color="#3262AC" stop-opacity="0.2"/>
<stop offset="1" stop-color="#3262AC"/>
</linearGradient>
<linearGradient id="paint8_linear" x1="286.292" y1="438.068" x2="341.589" y2="342.29" gradientUnits="userSpaceOnUse">
<stop stop-color="#3262AC" stop-opacity="0.2"/>
<stop offset="1" stop-color="#3262AC"/>
</linearGradient>
<linearGradient id="paint9_linear" x1="403.101" y1="344.422" x2="428.517" y2="300.399" gradientUnits="userSpaceOnUse">
<stop stop-color="#3262AC" stop-opacity="0.2"/>
<stop offset="1" stop-color="#3262AC"/>
</linearGradient>
<linearGradient id="paint10_linear" x1="382.414" y1="462.021" x2="412.521" y2="409.873" gradientUnits="userSpaceOnUse">
<stop stop-color="#3262AC" stop-opacity="0.2"/>
<stop offset="1" stop-color="#3262AC"/>
</linearGradient>
<linearGradient id="paint11_linear" x1="176.191" y1="251.035" x2="236.444" y2="251.035" gradientUnits="userSpaceOnUse">
<stop stop-color="#4456A3"/>
<stop offset="1" stop-color="#4456A3" stop-opacity="0.2"/>
</linearGradient>
<linearGradient id="paint12_linear" x1="390.392" y1="324.562" x2="390.392" y2="193.181" gradientUnits="userSpaceOnUse">
<stop stop-color="#3A57A4" stop-opacity="0.4"/>
<stop offset="1" stop-color="white" stop-opacity="0"/>
</linearGradient>
<linearGradient id="paint13_linear" x1="441.226" y1="324.562" x2="441.226" y2="193.181" gradientUnits="userSpaceOnUse">
<stop stop-color="#3A57A4" stop-opacity="0.5"/>
<stop offset="1" stop-color="white" stop-opacity="0"/>
</linearGradient>
<linearGradient id="paint14_linear" x1="427.358" y1="190.267" x2="427.358" y2="331.701" gradientUnits="userSpaceOnUse">
<stop stop-color="#6FC7DA" stop-opacity="0.3"/>
<stop offset="1" stop-color="white" stop-opacity="0"/>
</linearGradient>
<linearGradient id="paint15_linear" x1="440.906" y1="185.415" x2="440.906" y2="326.849" gradientUnits="userSpaceOnUse">
<stop stop-color="#6FC7DA" stop-opacity="0.3"/>
<stop offset="1" stop-color="white" stop-opacity="0"/>
</linearGradient>
<linearGradient id="paint16_linear" x1="452.828" y1="181.705" x2="452.828" y2="323.139" gradientUnits="userSpaceOnUse">
<stop stop-color="#6FC7DA" stop-opacity="0.3"/>
<stop offset="1" stop-color="white" stop-opacity="0"/>
</linearGradient>
<linearGradient id="paint17_linear" x1="390.392" y1="190.267" x2="390.392" y2="331.701" gradientUnits="userSpaceOnUse">
<stop stop-color="#6FC7DA" stop-opacity="0.3"/>
<stop offset="1" stop-color="white" stop-opacity="0"/>
</linearGradient>
<linearGradient id="paint18_linear" x1="407.648" y1="192.486" x2="407.648" y2="333.919" gradientUnits="userSpaceOnUse">
<stop stop-color="#6FC7DA" stop-opacity="0.3"/>
<stop offset="1" stop-color="white" stop-opacity="0"/>
</linearGradient>
<linearGradient id="paint19_linear" x1="408.268" y1="194.89" x2="423.351" y2="168.766" gradientUnits="userSpaceOnUse">
<stop stop-color="#53C3F1"/>
<stop offset="0.3804" stop-color="#76CBEA"/>
<stop offset="1" stop-color="#9CD5DF"/>
</linearGradient>
<linearGradient id="paint20_linear" x1="410.742" y1="190.606" x2="420.878" y2="173.049" gradientUnits="userSpaceOnUse">
<stop stop-color="#53C3F1"/>
<stop offset="0.3804" stop-color="#76CBEA"/>
<stop offset="1" stop-color="#9CD5DF"/>
</linearGradient>
<linearGradient id="paint21_linear" x1="412.634" y1="187.328" x2="418.985" y2="176.327" gradientUnits="userSpaceOnUse">
<stop stop-color="#53C3F1"/>
<stop offset="0.3804" stop-color="#76CBEA"/>
<stop offset="1" stop-color="#9CD5DF"/>
</linearGradient>
<linearGradient id="paint22_linear" x1="263.409" y1="302.033" x2="295.527" y2="302.033" gradientUnits="userSpaceOnUse">
<stop stop-color="#4456A3"/>
<stop offset="1" stop-color="#4456A3" stop-opacity="0.2"/>
</linearGradient>
<linearGradient id="paint23_linear" x1="265.771" y1="310.022" x2="282.988" y2="310.022" gradientUnits="userSpaceOnUse">
<stop stop-color="#4456A3"/>
<stop offset="1" stop-color="#4456A3" stop-opacity="0.2"/>
</linearGradient>
<linearGradient id="paint24_linear" x1="279.988" y1="314.633" x2="283.964" y2="314.633" gradientUnits="userSpaceOnUse">
<stop stop-color="#4456A3"/>
<stop offset="1" stop-color="#4456A3" stop-opacity="0.2"/>
</linearGradient>
<linearGradient id="paint25_linear" x1="315.375" y1="402.766" x2="323.605" y2="388.51" gradientUnits="userSpaceOnUse">
<stop stop-color="#53C3F1"/>
<stop offset="0.3804" stop-color="#76CBEA"/>
<stop offset="1" stop-color="#9CD5DF"/>
</linearGradient>
<linearGradient id="paint26_linear" x1="316.725" y1="400.428" x2="322.256" y2="390.848" gradientUnits="userSpaceOnUse">
<stop stop-color="#53C3F1"/>
<stop offset="0.3804" stop-color="#76CBEA"/>
<stop offset="1" stop-color="#9CD5DF"/>
</linearGradient>
<linearGradient id="paint27_linear" x1="317.757" y1="398.64" x2="321.223" y2="392.636" gradientUnits="userSpaceOnUse">
<stop stop-color="#53C3F1"/>
<stop offset="0.3804" stop-color="#76CBEA"/>
<stop offset="1" stop-color="#9CD5DF"/>
</linearGradient>
<linearGradient id="paint28_linear" x1="175.282" y1="455.389" x2="192.094" y2="426.271" gradientUnits="userSpaceOnUse">
<stop stop-color="#53C3F1"/>
<stop offset="0.3804" stop-color="#76CBEA"/>
<stop offset="1" stop-color="#9CD5DF"/>
</linearGradient>
<linearGradient id="paint29_linear" x1="178.039" y1="450.614" x2="189.337" y2="431.046" gradientUnits="userSpaceOnUse">
<stop stop-color="#53C3F1"/>
<stop offset="0.3804" stop-color="#76CBEA"/>
<stop offset="1" stop-color="#9CD5DF"/>
</linearGradient>
<linearGradient id="paint30_linear" x1="180.149" y1="446.961" x2="187.228" y2="434.699" gradientUnits="userSpaceOnUse">
<stop stop-color="#53C3F1"/>
<stop offset="0.3804" stop-color="#76CBEA"/>
<stop offset="1" stop-color="#9CD5DF"/>
</linearGradient>
<linearGradient id="paint31_linear" x1="392.615" y1="425.406" x2="402.359" y2="408.528" gradientUnits="userSpaceOnUse">
<stop stop-color="#53C3F1"/>
<stop offset="0.3804" stop-color="#76CBEA"/>
<stop offset="1" stop-color="#9CD5DF"/>
</linearGradient>
<linearGradient id="paint32_linear" x1="394.246" y1="422.579" x2="400.726" y2="411.355" gradientUnits="userSpaceOnUse">
<stop stop-color="#53C3F1"/>
<stop offset="0.3804" stop-color="#76CBEA"/>
<stop offset="1" stop-color="#9CD5DF"/>
</linearGradient>
<linearGradient id="paint33_linear" x1="395.753" y1="419.968" x2="399.219" y2="413.965" gradientUnits="userSpaceOnUse">
<stop stop-color="#53C3F1"/>
<stop offset="0.3804" stop-color="#76CBEA"/>
<stop offset="1" stop-color="#9CD5DF"/>
</linearGradient>
<linearGradient id="paint34_linear" x1="52.1587" y1="153.746" x2="297.616" y2="159.884" gradientUnits="userSpaceOnUse">
<stop stop-color="#515DA7"/>
<stop offset="0.1601" stop-color="#5561A9"/>
<stop offset="0.3488" stop-color="#626BB0"/>
<stop offset="0.552" stop-color="#777CBB"/>
<stop offset="0.7655" stop-color="#9496CA"/>
<stop offset="0.9849" stop-color="#B9B9DE"/>
<stop offset="1" stop-color="#BCBCDF"/>
</linearGradient>
<radialGradient id="paint35_radial" cx="0" cy="0" r="1" gradientUnits="userSpaceOnUse" gradientTransform="translate(111.94 81.6438) rotate(1.43251) scale(117.13)">
<stop stop-color="#2E2B76"/>
<stop offset="1" stop-color="#262554"/>
</radialGradient>
<linearGradient id="paint36_linear" x1="100.469" y1="133.109" x2="345.938" y2="139.247" gradientUnits="userSpaceOnUse">
<stop stop-color="#46BAEC"/>
<stop offset="0.3392" stop-color="#3C93D0"/>
<stop offset="0.7925" stop-color="#3E5FA9"/>
<stop offset="1" stop-color="#404A9A"/>
</linearGradient>
<clipPath id="clip0">
<rect width="512" height="512" fill="white" transform="translate(20)"/>
</clipPath>
</defs>
</svg>
