<svg width="482" height="451" viewBox="0 0 482 451" fill="none" xmlns="http://www.w3.org/2000/svg">
<ellipse cx="370.954" cy="44.2134" rx="8.04674" ry="7.49147" fill="#DEE5F0"/>
<ellipse cx="396.704" cy="68.1861" rx="16.0935" ry="14.9829" fill="#DEE5F0"/>
<ellipse cx="63.1667" cy="386.199" rx="18.1052" ry="16.8558" fill="#DEE5F0"/>
<ellipse cx="48.6833" cy="137.482" rx="18.1052" ry="16.8558" fill="#DEE5F0"/>
<ellipse cx="10.0584" cy="137.482" rx="10.0584" ry="9.36433" fill="#DEE5F0"/>
<path d="M327.503 395.938C292.419 389.645 253.607 403.804 238.586 411.67C212.971 420.659 208.009 451.749 147.658 436.766C133.576 434.893 95.6905 398.009 87.3076 375.711C76.0422 345.745 53.5113 342.328 44.2572 333.758C-16.5761 277.423 18.91 212.646 44.2572 187.3C54.0475 174.69 81.6749 158.833 87.3076 116.506C91.9744 81.4369 116.678 54.3267 157.314 31.4777C274.797 -26.9557 333.135 41.2166 344.401 48.3335C367.259 62.774 359.287 98.1518 424.466 126.994C476.609 150.068 467.382 199.037 456.25 220.637C451.825 226.63 443.295 252.701 444.583 309.037C446.192 379.456 371.357 403.804 327.503 395.938Z" fill="url(#paint0_linear)"/>
<ellipse cx="81.6747" cy="416.164" rx="6.03505" ry="5.6186" fill="#DEE5F0"/>
<ellipse cx="290.889" cy="430.398" rx="22.1285" ry="20.6015" fill="#DEE5F0"/>
<ellipse cx="467.918" cy="259.593" rx="14.0818" ry="13.1101" fill="#DEE5F0"/>
<g filter="url(#filter0_d)">
<path d="M158.069 183.239L357.445 245.387L321.919 347.988C318.305 358.426 306.827 364.223 296.282 360.935L135.094 310.691C124.549 307.404 118.93 296.278 122.544 285.84L158.069 183.239Z" fill="url(#paint1_linear)"/>
<path d="M231.441 277L159 183L358 245.26L231.441 277Z" fill="#D9D8D6"/>
<path d="M275.204 149.228L157.801 183.239L357.605 245.829L275.204 149.228Z" fill="#D9D8D6"/>
<path d="M158 183L357 245" stroke="#ACACAC"/>
</g>
<g filter="url(#filter1_d)">
<rect x="253.285" y="13" width="206.217" height="124.093" rx="10" transform="rotate(30.1275 253.285 13)" fill="white"/>
</g>
<rect x="250.31" y="55" width="168" height="9" transform="rotate(29.7425 250.31 55)" fill="#4B525C"/>
<rect x="243.364" y="67.1558" width="45" height="5" transform="rotate(29.7425 243.364 67.1558)" fill="url(#paint2_linear)"/>
<rect x="238.402" y="75.8384" width="168" height="5" transform="rotate(29.7425 238.402 75.8384)" fill="#C7C7C7"/>
<rect x="233.441" y="84.521" width="168" height="5" transform="rotate(29.7425 233.441 84.521)" fill="#C7C7C7"/>
<rect x="228.48" y="93.2036" width="168" height="5" transform="rotate(29.7425 228.48 93.2036)" fill="#C7C7C7"/>
<rect x="218.48" y="109" width="28.808" height="5" transform="rotate(29.7425 218.48 109)" fill="#C7C7C7"/>
<rect x="261.48" y="38" width="28.808" height="5" transform="rotate(29.7425 261.48 38)" fill="#C7C7C7"/>
<defs>
<filter id="filter0_d" x="101.448" y="133.228" width="276.552" height="252.628" filterUnits="userSpaceOnUse" color-interpolation-filters="sRGB">
<feFlood flood-opacity="0" result="BackgroundImageFix"/>
<feColorMatrix in="SourceAlpha" type="matrix" values="0 0 0 0 0 0 0 0 0 0 0 0 0 0 0 0 0 0 127 0" result="hardAlpha"/>
<feOffset dy="4"/>
<feGaussianBlur stdDeviation="10"/>
<feComposite in2="hardAlpha" operator="out"/>
<feColorMatrix type="matrix" values="0 0 0 0 0 0 0 0 0 0 0 0 0 0 0 0 0 0 0.25 0"/>
<feBlend mode="normal" in2="BackgroundImageFix" result="effect1_dropShadow"/>
<feBlend mode="normal" in="SourceGraphic" in2="effect1_dropShadow" result="shape"/>
</filter>
<filter id="filter1_d" x="174.666" y="0.666748" width="273.312" height="243.502" filterUnits="userSpaceOnUse" color-interpolation-filters="sRGB">
<feFlood flood-opacity="0" result="BackgroundImageFix"/>
<feColorMatrix in="SourceAlpha" type="matrix" values="0 0 0 0 0 0 0 0 0 0 0 0 0 0 0 0 0 0 127 0" result="hardAlpha"/>
<feOffset dy="4"/>
<feGaussianBlur stdDeviation="10"/>
<feComposite in2="hardAlpha" operator="out"/>
<feColorMatrix type="matrix" values="0 0 0 0 0.45 0 0 0 0 0.45 0 0 0 0 0.45 0 0 0 0.25 0"/>
<feBlend mode="normal" in2="BackgroundImageFix" result="effect1_dropShadow"/>
<feBlend mode="normal" in="SourceGraphic" in2="effect1_dropShadow" result="shape"/>
</filter>
<linearGradient id="paint0_linear" x1="237.778" y1="8" x2="237.778" y2="440.784" gradientUnits="userSpaceOnUse">
<stop stop-color="#DEE5F0"/>
<stop offset="1" stop-color="#014C8F" stop-opacity="0.46"/>
</linearGradient>
<linearGradient id="paint1_linear" x1="257.757" y1="214.313" x2="219.512" y2="337.005" gradientUnits="userSpaceOnUse">
<stop stop-color="#D95EF0"/>
<stop offset="1" stop-color="#0E4D95"/>
</linearGradient>
<linearGradient id="paint2_linear" x1="243.364" y1="70.1558" x2="288.364" y2="70.1558" gradientUnits="userSpaceOnUse">
<stop stop-color="#D55EEE"/>
<stop offset="1" stop-color="#5C54B8"/>
</linearGradient>
</defs>
</svg>
